<?xml version="1.0" standalone="no"?><!DOCTYPE svg PUBLIC "-//W3C//DTD SVG 1.1//EN"
        "http://www.w3.org/Graphics/SVG/1.1/DTD/svg11.dtd">
<svg t="1633720804827" class="icon" viewBox="0 0 1024 1024" version="1.1" xmlns="http://www.w3.org/2000/svg" p-id="6486"
     xmlns:xlink="http://www.w3.org/1999/xlink" width="200" height="200">
    <defs>
        <style type="text/css"></style>
    </defs>
    <path d="M915.499886 344.9856v351.085714h-819.2v-351.085714h819.2m11.132343-58.514286h-819.2c-32.314514 0-69.646629 36.088686-69.646629 68.4032v351.085715c0 32.314514 37.332114 48.625371 69.646629 48.625371h819.2c32.314514 0 47.381943-16.310857 47.381942-48.625371v-351.085715c0-32.314514-18.110171-68.4032-50.424685-68.4032h3.042743zM827.728457 254.785829a29.257143 29.257143 0 0 1-29.257143-29.257143v-70.714515h-614.4v70.714515a29.257143 29.257143 0 0 1-58.514285 0V126.3616c0-16.149943 9.142857-30.061714 25.2928-30.061714h689.064228c16.149943 0 17.056914 25.2928 17.056914 41.457371v87.771429c0.014629 16.149943-13.077943 29.257143-29.242514 29.257143zM839.928686 915.499886h-672.914286c-16.149943 0-41.457371-0.906971-41.457371-17.056915v-87.771428a29.257143 29.257143 0 0 1 58.514285 0v46.314057h614.4v-46.314057a29.257143 29.257143 0 0 1 58.514286 0v87.771428c0 16.149943-0.906971 17.056914-17.056914 17.056915z"
          fill="" p-id="6487"></path>
    <path d="M125.557029 547.357257a14.628571 14.628571 0 0 1-14.628572-14.628571v-146.285715c0-8.0896 18.753829-26.8288 26.8288-26.8288h117.028572a14.628571 14.628571 0 1 1 0 29.257143H140.1856v143.857372a14.628571 14.628571 0 0 1-14.628571 14.628571zM854.557257 652.1856h-43.885714a14.628571 14.628571 0 1 1 0-29.257143h31.685486v-46.314057a14.628571 14.628571 0 1 1 29.257142 0v58.514286c0 8.0896 0 17.056914-17.056914 17.056914zM125.557029 635.128686a14.628571 14.628571 0 0 1-14.628572-14.628572v-29.257143a14.628571 14.628571 0 1 1 29.257143 0v29.257143a14.628571 14.628571 0 0 1-14.628571 14.628572zM418.625829 631.822629c-59.1872 0-96.943543-44.544-96.943543-101.844115 0-56.744229 39.365486-100.981029 98.026057-100.981028 47.235657 0 84.992 32.841143 87.698286 76.288h-57.563429c-3.2768-17.378743-14.394514-27.136-31.232-27.136-27.969829 0-37.200457 27.969829-37.200457 51.843657 0 32.021943 14.116571 51.872914 37.200457 51.872914 17.378743 0 28.233143-10.8544 31.232-30.954057h58.368c-3.510857 53.467429-42.613029 80.910629-89.585371 80.910629zM624.830171 631.822629c-59.201829 0-96.943543-44.544-96.943542-101.844115 0-56.744229 39.365486-100.981029 98.026057-100.981028 47.235657 0 84.992 32.841143 87.698285 76.288h-57.563428c-3.2768-17.378743-14.394514-27.136-31.232-27.136-27.969829 0-37.200457 27.969829-37.200457 51.843657 0 32.021943 14.116571 51.872914 37.200457 51.872914 17.378743 0 28.233143-10.8544 31.232-30.954057h58.368c-3.510857 53.467429-42.613029 80.910629-89.585372 80.910629z"
          fill="" p-id="6488"></path>
</svg>